<?xml version="1.0" encoding="UTF-8"?>
<svg id="Layer_1" data-name="Layer 1" xmlns="http://www.w3.org/2000/svg" viewBox="0 0 48 44">
  <defs>
    <style>
      .cls-1 {
        fill: #364199;
      }

      .cls-2 {
        fill: none;
        stroke: #62caeb;
        stroke-miterlimit: 10;
        stroke-width: 3.45px;
      }
    </style>
  </defs>
  <rect class="cls-2" x="6.86" y="4.86" width="34.28" height="34.28" rx="8.05" ry="8.05"/>
  <g>
    <path class="cls-1" d="M37.28,18.92c.09,0,.17,0,.26,.01,.07,0,.15,0,.23,.02-1.09,1.17-2.22,2.29-3.33,3.46,.08,0,.15,.01,.21,.01,.32,0,.63,0,.95,0,.03,0,.06,0,.08,.03,.97,.83,1.94,1.67,2.91,2.5,.04,.03,.08,.07,.13,.12-.05,0-.09,0-.13,0-.84,0-1.67,0-2.51,.01-.03,0-.06-.02-.08-.04-.64-.64-1.27-1.29-1.91-1.93-.05-.05-.1-.1-.14-.14-.14,.12-.27,.24-.4,.37-.25,.24-.48,.49-.73,.74-.02,.02-.06,.04-.08,.04-.72,0-1.43,0-2.15,0-.06,0-.12,0-.18,0,0,0,0-.01-.01-.02,1.01-.96,2.02-1.91,3.02-2.87,0,0,0-.01,0-.02-.02,0-.04,0-.06,0-.34,0-.67,0-1.01-.01-.03,0-.07-.01-.09-.03-.47-.46-.94-.91-1.4-1.37-.01-.01-.03-.03-.05-.06,.05,0,.1-.01,.15-.01,.53,0,1.06,0,1.6,0,.02,0,.05,.01,.07,.03,.22,.19,.43,.38,.65,.57,.19,.16,.37,.32,.56,.49,.05,.04,.08,.04,.12,0,.49-.46,.98-.91,1.47-1.37,.16-.15,.32-.3,.48-.45,.02-.02,.06-.04,.1-.04,.12,0,.24,0,.36,0,.31,0,.62,0,.93,0Z"/>
    <path class="cls-1" d="M25.91,20.43v.64h-2.26v.54h2.26v.57h-2.26v.56h2.26v.62s-.03,0-.04,0c-.76,0-1.51,0-2.27,0-.12,0-.24,0-.36-.02-.14-.01-.22-.09-.24-.24-.01-.14-.02-.29-.02-.43,0-.55,0-1.09,0-1.64,0-.12,0-.24,.02-.35,.01-.12,.12-.22,.24-.23,.2-.01,.39-.02,.59-.02,.68,0,1.36,0,2.03,0,.02,0,.03,0,.05,0Z"/>
    <path class="cls-1" d="M22.58,22.74v.61s-.02,0-.03,0c-.76,0-1.52,0-2.28,0-.12,0-.23,0-.35-.02-.2-.02-.27-.09-.28-.29-.01-.23-.02-.46-.02-.7,0-.49,0-.97,0-1.46,0-.07,0-.14,.02-.21,.02-.14,.09-.22,.24-.23,.19-.01,.37-.02,.56-.02,.69,0,1.39,0,2.08,0,.01,0,.03,0,.04,0v.64s-.05,0-.07,0c-.68,0-1.36,0-2.04,0-.04,0-.08,0-.12,0-.04,0-.05,.02-.05,.05,0,.15,0,.31,0,.47h2.26v.57h-2.27s0,.09,0,.13c0,.12,0,.23,.01,.35,0,.05,.02,.07,.08,.07,.23,0,.46,.02,.7,.02,.48,0,.96,0,1.44,0,.02,0,.04,0,.07,0Z"/>
    <path class="cls-1" d="M29.17,20.43h.66s0,.04,0,.06c0,.68,0,1.36,0,2.05,0,.16-.01,.31-.02,.47,0,.18-.11,.29-.26,.36-.32,.13-.62,.08-.9-.1-.04-.02-.07-.07-.09-.11-.32-.47-.64-.94-.96-1.42-.12-.18-.25-.36-.37-.54-.02-.03-.05-.07-.08-.1-.03-.03-.07-.04-.1-.02-.02,.01-.04,.05-.04,.07,0,.71,0,1.42-.01,2.12,0,.03,0,.05,0,.08h-.66s0-.04,0-.06c0-.72,0-1.43,0-2.15,0-.1,.01-.19,0-.29,0-.24,.17-.41,.34-.46,.26-.08,.51-.06,.75,.08,.06,.03,.11,.09,.15,.14,.18,.26,.36,.52,.54,.77,.28,.4,.56,.81,.83,1.21,.02,.03,.04,.06,.06,.08,.02,.02,.05,.04,.07,.03,.02,0,.04-.04,.05-.06,.01-.05,.02-.1,.02-.16,0-.66,0-1.33,.01-1.99,0-.02,0-.05,0-.08Z"/>
    <path class="cls-1" d="M18.95,21.89c.05,.06,.11,.12,.16,.18,.05,.06,.08,.12,.08,.2,.01,.36,.03,.72,.04,1.08h-.66s0-.05,0-.07c-.01-.26-.02-.53-.03-.79,0-.14-.07-.2-.21-.21-.23-.01-.46-.02-.69-.02-.3,0-.6,0-.9,0v1.09h-.65s0-.05,0-.06c0-.76,0-1.51,0-2.27,0-.1,0-.2,.01-.3,0-.14,.11-.26,.26-.28,.19-.02,.38-.02,.57-.02,.5,0,1.01,0,1.51,.01,.64,.02,.96,.68,.7,1.2-.05,.09-.12,.17-.19,.25Zm-2.18-.21s.03,0,.05,0c.18,0,.35,0,.53,0,.31,0,.62-.01,.92-.02,.16,0,.23-.11,.28-.24,.04-.12-.03-.22-.11-.3-.06-.05-.13-.07-.2-.07-.27,0-.53-.01-.8-.01-.2,0-.4,0-.6,.01-.02,0-.06,.02-.06,.03,0,.2,0,.4,0,.6Z"/>
    <path class="cls-1" d="M12.3,20.43v.64s-.05,0-.07,0c-.63,0-1.26,0-1.89,0-.06,0-.12,0-.17,.01-.12,0-.18,.07-.22,.17-.04,.1,0,.19,.06,.26,.04,.04,.1,.06,.15,.06,.22,.01,.43,.02,.65,.02,.25,0,.51,0,.76,.01,.45,.01,.77,.29,.86,.73,.06,.29-.11,.69-.37,.85-.13,.08-.27,.13-.43,.13-.75,0-1.51,.01-2.26,.02-.01,0-.02,0-.04,0v-.61s.05,0,.07,0c.64,0,1.28,0,1.92-.01,.07,0,.14,0,.21,0,.12,0,.21-.11,.22-.24,.01-.13-.07-.25-.18-.28-.08-.01-.15-.02-.23-.02-.47,0-.95-.02-1.42-.03-.04,0-.08-.01-.11-.03-.04-.01-.07-.03-.1-.05-.29-.14-.43-.38-.44-.7,0-.05,0-.1,0-.15-.02-.33,.21-.67,.57-.78,.03,0,.06-.02,.1-.02,.77,0,1.55-.02,2.32-.02,0,0,.02,0,.03,0Z"/>
    <path class="cls-1" d="M15.68,23.36s-.03,0-.05,0c-.5,0-.99,0-1.49-.01-.75,0-1.24-.54-1.38-1.05-.26-.98,.42-1.69,1.09-1.83,.09-.02,.18-.03,.27-.03,.51,0,1.02-.01,1.53-.01,0,0,.02,0,.02,0v.63c-.11,0-.21,0-.31,0-.38,0-.76,.02-1.14,.01-.17,0-.31,.05-.44,.14-.18,.12-.31,.29-.35,.5-.08,.42,.12,.76,.45,.93,.11,.06,.23,.09,.36,.09,.45,0,.9,0,1.35,0,.02,0,.05,0,.08,0v.61Z"/>
  </g>
</svg>